<svg width="134" height="150" viewBox="0 0 134 150" fill="none" xmlns="http://www.w3.org/2000/svg">
<g clip-path="url(#clip0_14_133)">
<path d="M98.4282 141.074C97.7805 142.201 96.8866 142.979 95.8373 142.979C84.1783 143.626 73.1669 146.865 62.1556 144.274C50.4966 141.683 40.133 146.865 28.474 144.922C25.5592 143.95 22.6444 142.979 20.5393 140.906C7.97349 141.852 7.62939e-06 143.264 7.62939e-06 144.838C7.62939e-06 147.688 26.1551 150.019 58.4247 150.019C90.6944 150.019 116.856 147.707 116.856 144.838C116.856 143.367 109.776 142.014 98.4282 141.074Z" fill="#CCCCCE"/>
<path d="M97.8517 54.927L60.4327 55.4128L55.8533 58.1333L51.6171 54.927H42.7628V71.3663L39.4205 75.5765L34.718 72.6552L33.9667 54.927H19.0107V136.56H97.8517V54.927Z" fill="#FFDB01"/>
<path d="M25.2936 54.927H20.0859V136.56H25.2936V54.927Z" fill="white"/>
<path d="M97.8517 54.927L84.2884 55.076V136.56H97.8517V54.927Z" fill="#FF8603"/>
<path d="M92.0546 145.738H24.8014C22.8796 145.736 21.037 144.972 19.6781 143.613C18.3192 142.254 17.5551 140.412 17.5533 138.49V38.9865C17.5568 37.0659 18.3217 35.225 19.6804 33.8675C21.0391 32.51 22.8807 31.7467 24.8014 31.745H34.446C34.6442 31.7317 34.8431 31.7593 35.0302 31.826C35.2174 31.8928 35.3889 31.9973 35.534 32.133C35.6791 32.2687 35.7948 32.4328 35.8738 32.6151C35.9529 32.7974 35.9938 32.9939 35.9938 33.1926C35.9938 33.3913 35.9529 33.5879 35.8738 33.7702C35.7948 33.9525 35.6791 34.1166 35.534 34.2523C35.3889 34.388 35.2174 34.4925 35.0302 34.5592C34.8431 34.626 34.6442 34.6536 34.446 34.6403H24.8014C23.6492 34.642 22.5447 35.1005 21.73 35.9152C20.9153 36.7299 20.4568 37.8344 20.4551 38.9865V138.49C20.4568 139.643 20.9151 140.748 21.7296 141.564C22.5441 142.379 23.6486 142.839 24.8014 142.843H92.0546C93.2073 142.839 94.3118 142.379 95.1263 141.564C95.9409 140.748 96.3991 139.643 96.4008 138.49V38.9865C96.3991 37.8344 95.9407 36.7299 95.1259 35.9152C94.3112 35.1005 93.2067 34.642 92.0546 34.6403H59.5259C59.3276 34.6536 59.1287 34.626 58.9416 34.5592C58.7544 34.4925 58.583 34.388 58.4379 34.2523C58.2928 34.1166 58.1771 33.9525 58.098 33.7702C58.0189 33.5879 57.9781 33.3913 57.9781 33.1926C57.9781 32.9939 58.0189 32.7974 58.098 32.6151C58.1771 32.4328 58.2928 32.2687 58.4379 32.133C58.583 31.9973 58.7544 31.8928 58.9416 31.826C59.1287 31.7593 59.3276 31.7317 59.5259 31.745H92.0546C93.9741 31.7484 95.814 32.5124 97.1714 33.8698C98.5287 35.2271 99.2927 37.067 99.2962 38.9865V138.49C99.2944 140.411 98.5311 142.252 97.1736 143.611C95.8161 144.97 93.9752 145.735 92.0546 145.738Z" fill="#231F20"/>
<path d="M52.1807 34.6403H42.7628C42.5645 34.6536 42.3656 34.626 42.1785 34.5592C41.9913 34.4925 41.8199 34.388 41.6748 34.2523C41.5297 34.1166 41.414 33.9525 41.3349 33.7702C41.2558 33.5879 41.215 33.3913 41.215 33.1926C41.215 32.9939 41.2558 32.7974 41.3349 32.6151C41.414 32.4328 41.5297 32.2687 41.6748 32.133C41.8199 31.9973 41.9913 31.8928 42.1785 31.826C42.3656 31.7593 42.5645 31.7317 42.7628 31.745H52.1807C52.3789 31.7317 52.5778 31.7593 52.7649 31.826C52.9521 31.8928 53.1236 31.9973 53.2687 32.133C53.4138 32.2687 53.5294 32.4328 53.6085 32.6151C53.6876 32.7974 53.7284 32.9939 53.7284 33.1926C53.7284 33.3913 53.6876 33.5879 53.6085 33.7702C53.5294 33.9525 53.4138 34.1166 53.2687 34.2523C53.1236 34.388 52.9521 34.4925 52.7649 34.5592C52.5778 34.626 52.3789 34.6536 52.1807 34.6403Z" fill="#231F20"/>
<path d="M97.8517 138.49H19.0042C18.806 138.503 18.6071 138.476 18.42 138.409C18.2328 138.342 18.0614 138.238 17.9162 138.102C17.7711 137.966 17.6554 137.802 17.5763 137.62C17.4973 137.438 17.4564 137.241 17.4564 137.042C17.4564 136.844 17.4973 136.647 17.5763 136.465C17.6554 136.282 17.7711 136.118 17.9162 135.983C18.0614 135.847 18.2328 135.742 18.42 135.676C18.6071 135.609 18.806 135.581 19.0042 135.595H97.8517C98.2189 135.619 98.5631 135.782 98.8145 136.051C99.0659 136.32 99.2057 136.674 99.2057 137.042C99.2057 137.41 99.0659 137.765 98.8145 138.033C98.5631 138.302 98.2189 138.465 97.8517 138.49Z" fill="#231F20"/>
<path d="M97.8517 56.8637H60.4327C60.0479 56.8637 59.6788 56.7109 59.4068 56.4388C59.1347 56.1667 58.9818 55.7976 58.9818 55.4128C58.9818 55.028 59.1347 54.659 59.4068 54.3869C59.6788 54.1148 60.0479 53.9619 60.4327 53.9619H97.8517C98.2365 53.9619 98.6056 54.1148 98.8777 54.3869C99.1497 54.659 99.3026 55.028 99.3026 55.4128C99.3026 55.7976 99.1497 56.1667 98.8777 56.4388C98.6056 56.7109 98.2365 56.8637 97.8517 56.8637Z" fill="#231F20"/>
<path d="M52.1807 56.8637H44.2072C43.8224 56.8637 43.4533 56.7109 43.1812 56.4388C42.9091 56.1667 42.7563 55.7976 42.7563 55.4128C42.7563 55.028 42.9091 54.659 43.1812 54.3869C43.4533 54.1148 43.8224 53.9619 44.2072 53.9619H52.1807C52.5655 53.9619 52.9345 54.1148 53.2066 54.3869C53.4787 54.659 53.6316 55.028 53.6316 55.4128C53.6316 55.7976 53.4787 56.1667 53.2066 56.4388C52.9345 56.7109 52.5655 56.8637 52.1807 56.8637Z" fill="#231F20"/>
<path d="M33.9667 56.8637H19.0042C18.6194 56.8637 18.2504 56.7109 17.9783 56.4388C17.7062 56.1667 17.5533 55.7976 17.5533 55.4128C17.5533 55.028 17.7062 54.659 17.9783 54.3869C18.2504 54.1148 18.6194 53.9619 19.0042 53.9619H33.9667C34.3515 53.9619 34.7205 54.1148 34.9926 54.3869C35.2647 54.659 35.4175 55.028 35.4175 55.4128C35.4175 55.7976 35.2647 56.1667 34.9926 56.4388C34.7205 56.7109 34.3515 56.8637 33.9667 56.8637Z" fill="#231F20"/>
<path d="M95.9798 36.0912C95.7719 36.0925 95.5663 36.0482 95.3774 35.9617C95.2013 35.8828 95.0428 35.7696 94.911 35.6287C94.7792 35.4878 94.6768 35.322 94.6099 35.141C94.5429 34.9601 94.5128 34.7676 94.5211 34.5749C94.5294 34.3821 94.5761 34.193 94.6584 34.0185C95.5076 32.1438 95.8731 30.0862 95.7215 28.0337C95.5699 25.9813 94.9061 23.9997 93.7906 22.2702C92.6752 20.5406 91.1439 19.1185 89.3367 18.1337C87.5296 17.149 85.5043 16.6332 83.4463 16.6336C82.8982 16.6324 82.3507 16.6692 81.8076 16.7437C81.6026 16.77 81.3944 16.7524 81.1967 16.6921C80.9991 16.6318 80.8165 16.5302 80.6611 16.3939C80.5052 16.2589 80.3805 16.0918 80.2955 15.9039C80.2105 15.716 80.1673 15.5119 80.1688 15.3057V15.1956C80.1791 12.5309 79.3242 9.9348 77.7326 7.79758C76.141 5.66036 73.8987 4.09748 71.3428 3.34383C68.7868 2.59019 66.0553 2.68651 63.5588 3.61832C61.0622 4.55013 58.9356 6.26708 57.4985 8.5111C57.3905 8.67803 57.25 8.82144 57.0852 8.93274C56.9205 9.04404 56.735 9.12094 56.5399 9.15882C56.3449 9.19416 56.1447 9.18881 55.9518 9.14311C55.759 9.09741 55.5777 9.01235 55.4193 8.89326C53.5863 7.54092 51.4139 6.72384 49.1441 6.53299C46.8742 6.34214 44.5959 6.78502 42.5628 7.8123C40.5298 8.83958 38.8217 10.411 37.6288 12.3515C36.4359 14.292 35.8049 16.5256 35.8062 18.8034C35.8062 19.1014 35.8062 19.4188 35.8516 19.8009C35.8715 20.0567 35.8232 20.3132 35.7117 20.5443C35.6002 20.7754 35.4294 20.9727 35.2167 21.1163C35.0041 21.2598 34.7571 21.3444 34.5011 21.3614C34.2451 21.3783 33.9891 21.3271 33.7594 21.213C32.4874 20.5739 31.0828 20.2433 29.6593 20.2479C27.2119 20.2496 24.8652 21.2226 23.1346 22.9532C21.4039 24.6838 20.4309 27.0305 20.4292 29.4779C20.4233 30.9331 20.7677 32.3682 21.4332 33.6622C21.5788 34.0023 21.5889 34.3852 21.4616 34.7325C21.3342 35.0798 21.0791 35.3654 20.7482 35.5308C20.4173 35.6963 20.0358 35.7291 19.6815 35.6225C19.3272 35.516 19.0271 35.2782 18.8423 34.9577C17.7787 32.8562 17.349 30.4909 17.6057 28.1496C17.8623 25.8083 18.7942 23.5922 20.2879 21.7711C21.7816 19.95 23.7725 18.6026 26.0183 17.8928C28.2641 17.183 30.6679 17.1416 32.9368 17.7736C33.1945 13.9243 34.9043 10.3165 37.7203 7.67959C40.5364 5.0427 44.2486 3.57347 48.1065 3.56896C50.8456 3.56579 53.5334 4.31166 55.8792 5.72588C57.7618 3.34649 60.3134 1.58488 63.2055 0.667721C66.0977 -0.249437 69.1982 -0.280179 72.1079 0.579452C75.0177 1.43908 77.6037 3.14975 79.5332 5.49135C81.4626 7.83294 82.6473 10.6983 82.9346 13.7188H83.3816C85.9237 13.7213 88.4247 14.3607 90.6561 15.5786C92.8876 16.7965 94.7783 18.5541 96.1555 20.6908C97.5328 22.8275 98.3527 25.2753 98.5404 27.8105C98.728 30.3457 98.2775 32.8876 97.2299 35.2038C97.1258 35.4541 96.9534 35.6701 96.7323 35.827C96.5112 35.984 96.2504 36.0755 95.9798 36.0912Z" fill="#231F20"/>
<path d="M72.856 21.6599C72.5777 21.6615 72.3048 21.5827 72.0702 21.433C71.8356 21.2832 71.6493 21.0688 71.5337 20.8156C71.418 20.5624 71.378 20.2812 71.4184 20.0059C71.4588 19.7305 71.5779 19.4726 71.7614 19.2633C73.8171 16.8803 76.5438 15.1728 79.5853 14.3639C82.6268 13.555 85.8415 13.6823 88.8095 14.7292C88.9998 14.7835 89.1769 14.876 89.3301 15.0012C89.4833 15.1264 89.6092 15.2816 89.7002 15.4572C89.7912 15.6329 89.8453 15.8253 89.8592 16.0227C89.8731 16.22 89.8465 16.4181 89.7811 16.6048C89.7156 16.7915 89.6126 16.9628 89.4785 17.1082C89.3444 17.2537 89.182 17.3701 89.0012 17.4505C88.8204 17.5308 88.6251 17.5734 88.4273 17.5755C88.2295 17.5775 88.0333 17.5392 87.8508 17.4626C85.4312 16.6095 82.8104 16.5067 80.3314 17.1678C77.8524 17.8289 75.6307 19.223 73.9571 21.1676C73.8202 21.3245 73.6508 21.4498 73.4607 21.5348C73.2706 21.6198 73.0643 21.6625 72.856 21.6599Z" fill="#231F20"/>
<path d="M38.6044 76.4898C35.5147 76.4898 33.0015 74.1903 33.0015 71.3663V33.4355C32.9883 33.2373 33.0159 33.0384 33.0826 32.8513C33.1494 32.6641 33.2538 32.4927 33.3896 32.3475C33.5253 32.2024 33.6894 32.0867 33.8716 32.0076C34.0539 31.9285 34.2505 31.8877 34.4492 31.8877C34.6479 31.8877 34.8445 31.9285 35.0267 32.0076C35.209 32.0867 35.3731 32.2024 35.5089 32.3475C35.6446 32.4927 35.7491 32.6641 35.8158 32.8513C35.8826 33.0384 35.9102 33.2373 35.8969 33.4355V71.3663C35.8969 72.5905 37.1146 73.588 38.6044 73.588C40.0941 73.588 41.3119 72.5905 41.3119 71.3663V33.4355C41.2986 33.2373 41.3262 33.0384 41.3929 32.8513C41.4597 32.6641 41.5642 32.4927 41.6999 32.3475C41.8356 32.2024 41.9997 32.0867 42.182 32.0076C42.3642 31.9285 42.5608 31.8877 42.7595 31.8877C42.9582 31.8877 43.1548 31.9285 43.3371 32.0076C43.5193 32.0867 43.6835 32.2024 43.8192 32.3475C43.9549 32.4927 44.0594 32.6641 44.1261 32.8513C44.1929 33.0384 44.2204 33.2373 44.2072 33.4355V71.3663C44.2072 74.1903 41.694 76.4898 38.6044 76.4898Z" fill="#231F20"/>
<path d="M55.8533 59.5842C54.495 59.5824 53.1928 59.0421 52.2323 58.0816C51.2718 57.1212 50.7315 55.819 50.7298 54.4607V33.4355C50.7298 33.0507 50.8826 32.6817 51.1547 32.4096C51.4268 32.1375 51.7959 31.9846 52.1807 31.9846C52.5655 31.9846 52.9345 32.1375 53.2066 32.4096C53.4787 32.6817 53.6316 33.0507 53.6316 33.4355V54.4607C53.6316 55.0499 53.8656 55.615 54.2823 56.0316C54.6989 56.4483 55.2641 56.6824 55.8533 56.6824C56.4425 56.6824 57.0076 56.4483 57.4242 56.0316C57.8409 55.615 58.075 55.0499 58.075 54.4607V33.4355C58.075 33.0507 58.2278 32.6817 58.4999 32.4096C58.772 32.1375 59.1411 31.9846 59.5259 31.9846C59.9107 31.9846 60.2797 32.1375 60.5518 32.4096C60.8239 32.6817 60.9768 33.0507 60.9768 33.4355V54.4607C60.975 55.819 60.4347 57.1212 59.4742 58.0816C58.5138 59.0421 57.2116 59.5824 55.8533 59.5842Z" fill="#231F20"/>
<path d="M126.345 129.435H97.8452C97.4604 129.435 97.0914 129.282 96.8193 129.01C96.5472 128.738 96.3943 128.369 96.3943 127.984V118.683C96.3943 118.298 96.5472 117.929 96.8193 117.657C97.0914 117.384 97.4604 117.232 97.8452 117.232H118.229C118.992 117.232 119.723 116.929 120.263 116.389C120.802 115.85 121.105 115.118 121.105 114.356V63.1272C121.105 62.3645 120.802 61.633 120.263 61.0936C119.723 60.5543 118.992 60.2513 118.229 60.2513H97.8517C97.4669 60.2513 97.0979 60.0985 96.8258 59.8264C96.5537 59.5543 96.4008 59.1852 96.4008 58.8004V49.4926C96.4008 49.3024 96.4384 49.114 96.5114 48.9384C96.5844 48.7627 96.6913 48.6032 96.8262 48.469C96.961 48.3347 97.121 48.2285 97.297 48.1563C97.473 48.0841 97.6615 48.0473 97.8517 48.0482H126.352C128.269 48.0499 130.108 48.8116 131.466 50.1665C132.823 51.5214 133.588 53.359 133.593 55.2768V122.193C133.59 124.114 132.825 125.955 131.466 127.312C130.107 128.67 128.266 129.433 126.345 129.435ZM99.2962 126.526H126.345C127.497 126.525 128.602 126.066 129.416 125.252C130.231 124.437 130.69 123.332 130.691 122.18V55.2768C130.69 54.1246 130.231 53.0201 129.416 52.2054C128.602 51.3907 127.497 50.9323 126.345 50.9306H99.2962V57.343H118.236C119.766 57.3447 121.233 57.9533 122.315 59.0353C123.397 60.1172 124.005 61.5842 124.007 63.1143V114.343C124.005 115.873 123.397 117.34 122.315 118.422C121.233 119.504 119.766 120.112 118.236 120.114H99.2962V126.526Z" fill="#231F20"/>
<path d="M47.0637 129.797H39.1484C37.2712 129.747 35.4899 128.957 34.1921 127.599C32.8942 126.242 32.1847 124.427 32.2178 122.549V70.0838C32.2132 68.7852 32.5481 67.508 33.1894 66.3788C33.3846 66.0537 33.6994 65.8179 34.0663 65.722C34.4332 65.6261 34.823 65.6776 35.1524 65.8656C35.4818 66.0536 35.7244 66.363 35.8285 66.7277C35.9325 67.0924 35.8896 67.4833 35.709 67.8167C35.3168 68.5078 35.1114 69.2892 35.1131 70.0838V122.549C35.0728 123.661 35.475 124.744 36.2314 125.56C36.9878 126.376 38.0367 126.858 39.1484 126.902H47.0637C48.1748 126.857 49.2228 126.373 49.9788 125.558C50.7349 124.742 51.1375 123.661 51.099 122.549V70.0838C51.1375 68.973 50.7346 67.8922 49.9784 67.0777C49.2222 66.2633 48.1742 65.7814 47.0637 65.7375H43.6372C43.2524 65.7375 42.8834 65.5847 42.6113 65.3126C42.3392 65.0405 42.1863 64.6714 42.1863 64.2866C42.1863 63.9018 42.3392 63.5328 42.6113 63.2607C42.8834 62.9886 43.2524 62.8357 43.6372 62.8357H47.0637C48.9409 62.8867 50.7222 63.6767 52.02 65.034C53.3179 66.3913 54.0274 68.2061 53.9943 70.0838V122.549C54.0274 124.427 53.3179 126.242 52.02 127.599C50.7222 128.957 48.9409 129.747 47.0637 129.797Z" fill="#231F20"/>
<path d="M78.8021 129.797H70.8805C69.0032 129.747 67.222 128.957 65.9241 127.599C64.6262 126.242 63.9167 124.427 63.9498 122.549V70.0838C63.9167 68.2061 64.6262 66.3913 65.9241 65.034C67.222 63.6767 69.0032 62.8867 70.8805 62.8357H78.8021C80.6794 62.8867 82.4607 63.6767 83.7585 65.034C85.0564 66.3913 85.7659 68.2061 85.7328 70.0838V122.549C85.7659 124.427 85.0564 126.242 83.7585 127.599C82.4607 128.957 80.6794 129.747 78.8021 129.797ZM70.8805 65.7181C69.7711 65.7636 68.7247 66.2462 67.9699 67.0605C67.2151 67.8748 66.8131 68.9547 66.8516 70.0643V122.53C66.8113 123.641 67.2125 124.722 67.9676 125.538C68.7226 126.354 69.7699 126.837 70.8805 126.883H78.8021C79.9133 126.837 80.9613 126.354 81.7173 125.538C82.4734 124.723 82.876 123.641 82.8375 122.53V70.0643C82.876 68.9536 82.4731 67.8728 81.7169 67.0583C80.9607 66.2438 79.9127 65.762 78.8021 65.7181H70.8805Z" fill="#231F20"/>
</g>
<defs>
<clipPath id="clip0_14_133">
<rect width="133.593" height="150" fill="white"/>
</clipPath>
</defs>
</svg>
